# xmcd
#
# Track frame offsets: 
#        150
#        16461
#        34672
#        47189
#        63404
#        84722
#        96734
#        115676
#        130069
#        148495
#        165468
#        183290
#        199371
#
# Disc length: 2896 seconds
#
# Revision: 0
# Processed by: cddbd v1.5.2PL0 Copyright (c) Steve Scherf et al.
# Submitted via: ExactAudioCopy v0.99pb5
#
DISCID=be0b4e0d
DTITLE=Allison Moorer - Crows
DYEAR=2010
DGENRE=
TTITLE0=Abalone Sky
TTITLE1=Goodbye To The Ground
TTITLE2=Just Another Fool
TTITLE3=The Broken Girl
TTITLE4=Should I Be Concerned
TTITLE5=When You Wake Up Feeling Bad
TTITLE6=Easy In The Summertime
TTITLE7=The Stars and I (Mama's Song)
TTITLE8=Still This Side Of Gone
TTITLE9=Like The Rain
TTITLE10=Sorrow (Don't Come Around)
TTITLE11=It's Gonna Feel Good (When It Stops Hurting)
TTITLE12=Crows
EXTD=
EXTT0=
EXTT1=
EXTT2=
EXTT3=
EXTT4=
EXTT5=
EXTT6=
EXTT7=
EXTT8=
EXTT9=
EXTT10=
EXTT11=
EXTT12=
PLAYORDER=
